PathFileType	4	(X/Y/Z)	c:/Users/goper/Files/vsCode/490R/osim_files/A02/A02_Slow_06.trc
DataRate	CameraRate	NumFrames	NumMarkers	Units                	OrigDataRate	OrigDataStartFrame	OrigNumFrames
250.00	250.00	7	36	mm	250.0	1419	2837
                Frame#	Time	Mobility_markerset:LPSIS			Mobility_markerset:LASIS			Mobility_markerset:LTH1			Mobility_markerset:LTH2			Mobility_markerset:LTH3			Mobility_markerset:LTH4			Mobility_markerset:LLFE			Mobility_markerset:LMFE			Mobility_markerset:LSH1			Mobility_markerset:LSH2			Mobility_markerset:LSH3			Mobility_markerset:LSH4			Mobility_markerset:LLMAL			Mobility_markerset:LMMAL			Mobility_markerset:LCAL			Mobility_markerset:LMTP5			Mobility_markerset:LTOE			Mobility_markerset:LMTP1			Mobility_markerset:RPSIS			Mobility_markerset:RASIS			Mobility_markerset:RTH1			Mobility_markerset:RTH2			Mobility_markerset:RTH3			Mobility_markerset:RTH4			Mobility_markerset:RLFE			Mobility_markerset:RMFE			Mobility_markerset:RSH1			Mobility_markerset:RSH2			Mobility_markerset:RSH3			Mobility_markerset:RSH4			Mobility_markerset:RLMAL			Mobility_markerset:RMMAL			Mobility_markerset:RCAL			Mobility_markerset:RMTP1			Mobility_markerset:RTOE			Mobility_markerset:RMTP5		
		X1	Y1	Z1	X2	Y2	Z2	X3	Y3	Z3	X4	Y4	Z4	X5	Y5	Z5	X6	Y6	Z6	X7	Y7	Z7	X8	Y8	Z8	X9	Y9	Z9	X10	Y10	Z10	X11	Y11	Z11	X12	Y12	Z12	X13	Y13	Z13	X14	Y14	Z14	X15	Y15	Z15	X16	Y16	Z16	X17	Y17	Z17	X18	Y18	Z18	X19	Y19	Z19	X20	Y20	Z20	X21	Y21	Z21	X22	Y22	Z22	X23	Y23	Z23	X24	Y24	Z24	X25	Y25	Z25	X26	Y26	Z26	X27	Y27	Z27	X28	Y28	Z28	X29	Y29	Z29	X30	Y30	Z30	X31	Y31	Z31	X32	Y32	Z32	X33	Y33	Z33	X34	Y34	Z34	X35	Y35	Z35	X36	Y36	Z36

1419	5.67200	-294.78442	936.03882	309.27243	-434.31467	892.57208	403.62219	-290.43198	662.23993	420.11069	-289.39404	614.71002	414.99359	-347.89850	653.59735	441.16635	-338.46646	609.80774	432.09930	0.00000	0.00000	0.00000	-310.65662	415.84164	273.11359	-189.25983	409.43448	377.26346	-163.93927	373.39114	381.70316	-236.74496	371.20682	387.29251	-206.74670	340.62482	388.52545	-51.76249	148.38020	339.63852	-69.51707	147.40454	256.88361	16.58326	163.06458	291.21133	-95.30475	46.00048	358.22449	-149.91281	44.33083	293.85651	-106.20045	36.62052	245.98161	-306.89871	946.75488	208.55339	-465.89166	917.85687	160.56145	-488.83017	589.39819	137.62839	-510.29559	550.68469	138.36685	-546.85565	613.66254	136.17516	-558.55780	571.66919	136.73233	-566.63458	451.70578	129.21846	-586.46698	462.39795	261.81720	-618.59674	273.42236	151.78896	-638.39996	232.32414	162.14838	-674.58624	294.51367	147.80101	-687.32159	249.41365	155.55922	-694.07971	85.17484	161.76505	-705.81628	94.47459	249.02315	-651.11011	56.64502	208.99686	-834.47003	96.25285	238.40486	-850.38861	113.16607	202.61845	-825.05646	89.21254	146.90250
1420	5.67600	-300.48044	936.38336	309.31033	-439.55298	893.11865	403.57550	-295.61230	662.84540	419.90860	-294.50867	615.29773	414.93970	-352.90262	654.09827	441.22473	-343.46844	610.24683	432.20557	0.00000	0.00000	0.00000	-315.23569	416.26129	273.36319	-193.12476	411.15768	377.34705	-167.99564	374.86499	381.77673	-240.87550	372.20505	387.77737	-210.57011	341.97577	388.96967	-54.86802	150.18648	340.09766	-72.75974	148.96867	257.43243	12.74963	166.28757	291.57687	-96.31247	46.29652	358.28574	-150.47446	44.04310	293.79575	-106.68383	37.09722	245.93178	-312.23297	947.21429	208.59943	-471.25156	918.40234	160.50647	-493.40326	589.72247	136.93211	-514.33588	551.07043	137.96510	-551.26361	613.81750	135.80829	-562.76392	571.77979	136.46751	-570.02527	451.71393	128.89459	-589.97430	462.48270	261.73215	-620.76788	273.16336	151.65591	-640.15894	231.97520	161.89737	-676.93030	293.91742	147.61320	-689.45746	248.72809	155.45648	-695.14240	84.71318	161.62564	-706.82001	94.11117	249.10085	-651.45831	57.09045	209.11879	-835.55676	94.34134	238.47723	-851.73566	111.07640	202.63831	-826.14386	87.30479	146.92598
1421	5.68000	-305.89096	936.84961	309.38785	-445.31122	893.79913	403.73203	-300.77899	663.41534	419.72998	-299.48526	615.93695	414.80505	-357.88248	654.66418	441.34332	-348.56265	610.72803	432.28809	0.00000	0.00000	0.00000	-319.98700	416.73477	273.71649	-196.83322	413.01990	377.00793	-172.13258	376.27170	381.79117	-245.12968	373.32947	388.30276	-212.96773	342.00296	390.70844	-58.18902	152.03555	340.55743	-76.39835	150.14336	258.44537	8.70391	169.70648	291.87799	-97.37554	46.69173	358.28723	-151.20055	43.81827	293.70413	-107.23567	37.63418	245.79189	-317.59863	947.74603	208.77191	-476.48361	918.92120	160.50005	-497.62524	590.26392	136.52197	-518.41473	551.47510	137.59827	-555.61938	613.96875	135.46056	-566.82965	571.94507	136.05421	-573.38782	451.83542	128.55574	-593.36597	462.54663	261.43924	-622.92163	272.92374	151.42250	-642.28290	231.58607	161.85226	-679.24005	293.35419	147.41234	-691.41571	248.04550	155.25136	-696.41937	84.06389	161.62413	-707.99268	93.69320	249.07999	-652.27008	57.22294	209.01564	-836.58453	92.52344	238.47900	-853.01410	109.08311	202.63696	-827.13220	85.44504	146.93001
1422	5.68400	-311.40225	937.37109	309.52002	-450.43304	894.29663	403.42899	-305.94205	664.07208	419.53180	-304.83340	616.45056	415.10092	-362.95096	655.24274	441.41312	-353.55679	611.34467	432.46759	0.00000	0.00000	0.00000	-325.21829	416.95969	274.34207	-201.63406	414.36374	377.13522	-176.61290	377.80206	381.88599	-249.41313	374.54736	389.00275	-217.15895	343.32336	391.22116	-61.69996	153.95776	340.96164	-80.01147	151.74953	259.00119	4.39010	173.15164	292.15826	-98.34516	47.29604	358.39386	-151.84872	43.57331	293.67038	-107.77370	38.27132	245.55519	-322.82584	948.33673	208.92081	-481.74414	919.52643	160.42365	-501.84079	590.92938	136.11334	-522.39478	551.96332	137.21194	-560.03436	614.24976	135.02272	-570.99951	572.19409	135.68053	-576.65753	451.96423	128.24734	-596.85956	462.66647	261.13754	-625.08643	272.71942	151.27351	-644.17633	231.26505	161.71246	-681.57007	292.82761	147.19371	-694.14008	247.86130	154.56088	-697.37561	83.71042	161.48088	-709.02643	93.32133	248.94543	-652.95874	57.44338	208.89485	-837.57642	90.99654	238.50764	-854.15601	107.16835	202.57767	-828.17352	83.70119	146.91013
1423	5.68800	-316.91010	937.89417	309.68353	-455.83310	894.87170	403.34787	-311.12878	664.68951	419.35947	-310.05084	617.07367	415.03943	-368.16724	655.81134	441.49899	-358.64914	611.88708	432.60358	0.00000	0.00000	0.00000	-330.78940	417.07416	275.07083	-207.52350	415.01321	377.85617	-181.35239	379.22125	382.06299	-253.95529	375.43188	389.83176	-221.59727	344.54401	391.76404	-65.35680	155.86510	341.35312	-83.84545	153.32892	259.60767	-0.38217	176.60704	292.45789	-99.35587	47.94648	358.48392	-152.59712	43.24450	293.52612	-108.49721	38.74545	245.49025	-328.07404	948.91620	209.14737	-487.07495	920.24768	160.37538	-506.07657	591.58539	135.77989	-526.33972	552.50684	136.83734	-564.31970	614.52240	134.75439	-575.02704	572.40149	135.36980	-579.87531	452.18927	127.95345	-600.09882	462.80182	260.83633	-627.22040	272.64072	151.12901	-646.07593	231.04546	161.52400	-683.77484	292.38214	146.95445	-695.97198	247.24377	154.55069	-698.31097	83.33005	161.38327	-709.77429	93.08021	249.02007	-653.56879	57.64144	208.78920	-838.24213	89.27599	238.48026	-855.20459	105.34201	202.52165	-829.01160	82.09808	146.86058
1424	5.69200	-322.24921	938.49921	309.92694	-461.09741	895.58588	403.23407	-316.35379	665.26709	419.23001	-315.15585	617.67273	414.60977	-373.26215	656.40900	441.60983	-363.85498	612.46313	432.78668	0.00000	0.00000	0.00000	-335.95203	417.54935	275.41354	-212.49521	416.29797	377.91486	-186.23570	380.75531	382.20010	-258.68195	376.50620	390.53290	-226.09727	345.82837	392.38443	-69.25340	157.85077	341.78650	-87.91971	154.92740	260.23624	-5.18320	180.30199	292.84470	-100.58353	48.58119	358.56592	-153.38138	43.10613	293.44373	-109.47971	39.20560	245.68028	-333.20929	949.61243	209.44357	-492.18362	920.95251	160.40726	-510.20715	592.37598	135.42914	-530.24774	553.19269	136.55588	0.00000	0.00000	0.00000	-579.04608	572.76477	135.03882	-583.56396	452.56165	127.42670	-603.24152	462.94650	260.47488	-629.25818	272.60178	151.02390	-647.88525	230.90736	161.43159	-685.97839	292.03250	146.81076	-697.75885	246.77789	154.44995	-698.88165	83.14437	161.08067	-710.90997	92.64671	248.88495	-654.13470	57.88916	208.76262	-839.27936	87.93463	238.45230	-856.18805	103.71057	202.44272	-829.77039	80.55965	146.83435
1425	5.69600	-327.69583	939.14893	310.15900	-466.62872	896.23376	403.07825	-321.63879	665.83441	419.07404	-320.67319	618.19684	414.96799	-378.36816	657.09106	441.75336	-369.02908	613.12366	433.01694	0.00000	0.00000	0.00000	-342.09143	417.51407	276.29929	-217.23480	417.88623	377.84073	-191.20560	382.17102	382.36603	-263.58386	377.49899	391.13803	-231.10771	347.09558	393.25513	-73.35345	159.83139	342.27313	-92.28432	156.51448	260.88760	-10.44587	184.04025	293.25089	-101.92140	49.29596	358.63943	-154.28188	43.01575	293.44995	-110.48717	39.92421	245.77954	-338.33801	950.31622	209.72717	-497.54565	921.79181	160.31802	-514.37360	593.22076	135.19328	-534.10278	553.92889	136.33900	-572.88232	615.25671	134.17143	-583.07062	573.13867	134.76932	-586.55829	452.95233	127.37025	-606.82135	463.40909	260.38043	-630.99677	272.64835	151.02516	-649.45868	230.89497	161.27168	-688.04639	291.76392	146.62521	-699.45563	246.33778	154.40068	-699.59979	82.88310	160.99927	-711.61121	92.43162	248.90858	-654.66888	58.09185	208.73381	-840.05609	86.53226	238.36169	-857.06812	102.18729	202.37096	-830.45471	79.18154	146.80264
